# File units = meters
mtllib bucket.mtl
g Part 1
v -0.175 0.25 0 
v 0.175 0.25 0 
v 0.175 -0.25 0 
v -0.175 -0.25 0 
v 0.175 -0.25 0.2 
v 0.175 0.25 0.2 
v -0.175 0.25 0.2 
v -0.175 -0.25 0.2 
v -0.15 0.225 0.2 
v -0.15 -0.225 0.2 
v 0.15 -0.225 0.2 
v 0.15 0.225 0.2 
v 0.15 0.225 0.025 
v 0.15 -0.225 0.025 
v -0.15 0.225 0.025 
v -0.15 -0.225 0.025 
vn 0 0 -1 
vn 1 -5.55112e-17 0 
vn 0 1 0 
vn -1 5.55112e-17 0 
vn 0 -1 0 
vn 0 0 1 
vn -1 6.16791e-17 0 
vn 0 -1 0 
vn 1 -6.16791e-17 0 
vn 0 1 0 
vn 0 0 1 
usemtl 0.615686_0.811765_0.929412_0.000000_0.000000
o mesh0
f 1//1 2//1 3//1 
f 3//1 4//1 1//1 
o mesh1
f 5//2 3//2 2//2 
f 2//2 6//2 5//2 
o mesh2
f 6//3 2//3 1//3 
f 1//3 7//3 6//3 
o mesh3
f 7//4 1//4 4//4 
f 4//4 8//4 7//4 
o mesh4
f 8//5 4//5 3//5 
f 3//5 5//5 8//5 
o mesh5
f 6//6 7//6 9//6 
f 7//6 8//6 10//6 
f 10//6 9//6 7//6 
f 8//6 5//6 11//6 
f 11//6 10//6 8//6 
f 5//6 6//6 12//6 
f 12//6 11//6 5//6 
f 9//6 12//6 6//6 
o mesh6
f 11//7 12//7 13//7 
f 13//7 14//7 11//7 
o mesh7
f 9//8 15//8 13//8 
f 13//8 12//8 9//8 
o mesh8
f 10//9 16//9 15//9 
f 15//9 9//9 10//9 
o mesh9
f 10//10 11//10 14//10 
f 14//10 16//10 10//10 
o mesh10
f 16//11 14//11 13//11 
f 13//11 15//11 16//11 
